<svg xmlns="http://www.w3.org/2000/svg" viewBox="0 0 128 128">
  <style type="text/css">.cls-0 {fill:#A8C58D;}
.cls-1 {fill:none;stroke:#879B6E;stroke-width:2.3418;stroke-linecap:round;stroke-linejoin:round;stroke-miterlimit:10;}
.cls-2 {fill:#F9F0D9;}
.cls-3 {fill:none;stroke:#6B4433;stroke-width:2.3418;stroke-linecap:round;stroke-linejoin:round;stroke-miterlimit:10;}
.cls-4 {fill:#F9F0D9;stroke:#6B4433;stroke-width:2.3418;stroke-linecap:round;stroke-linejoin:round;stroke-miterlimit:10;}
.cls-5 {fill:#6B4433;}
.cls-6 {fill:#FF8C46;stroke:#DB7035;stroke-width:2.4571;stroke-linecap:round;stroke-linejoin:round;stroke-miterlimit:10;}
.cls-7 {fill:none;stroke:#DB7035;stroke-width:2.3418;stroke-linecap:round;stroke-linejoin:round;stroke-miterlimit:10;}
.cls-8 {fill:#F9F0D9;stroke:#6B4433;stroke-width:2.3418;stroke-linecap:round;stroke-linejoin:round;stroke-miterlimit:10;}
.cls-9 {fill:none;stroke:#6B4433;stroke-width:2.2762;stroke-linecap:round;stroke-linejoin:round;stroke-miterlimit:10;}
.cls-10 {fill:none;stroke:#DB7035;stroke-width:2.2762;stroke-linecap:round;stroke-linejoin:round;stroke-miterlimit:10;}</style>
  <path class="cls-0" d="m46.7 36.5c2.4-3.3 3.8-6.9 4.4-10.9 0.3-2.7-0.2-7-4.1-7 0.5-2.4-0.6-7.4-4.2-8.2-3.1-0.5-5.8 2.4-6.7 5.9-0.8-3.3-3.6-9.2-8.3-9.8-4.4-0.5-7.6 2.6-7.8 7-0.1 2.1 0.5 4.7 1.1 6.3-2.1-2-6.3-3.1-8.8 0.1-2.7 3.8-0.4 7.8 2.1 9.9-2.7 0.7-4.7 2.6-4.2 5.3 0.8 5.3 10.1 8.6 16 8.5l20.5-7.1z"/>
  <path class="cls-1" d="m35.7 37.3c-1.2-6.6-5.3-15.5-5.3-15.5"/>
  <path class="cls-1" d="m41.4 36c0.5-5.3 0.4-10.2 0-10.3"/>
  <path class="cls-1" d="m30.6 39.4c-3.3-4.1-8-7.1-8-7.1"/>
  <path class="cls-1" d="m46.7 36.5c2.4-3.3 3.8-6.9 4.4-10.9 0.3-2.4 0-7.2-4.1-7 0.7-2.3-0.5-7.6-3.9-8.2-3.1-0.5-5.5 1.7-7 5.9-0.8-3.3-3.6-9.6-9-9.8-4-0.2-6.9 3-7.1 7-0.1 2.1 0.5 4.7 1.1 6.3-2-1.8-5.9-3.2-8.6-0.1-3 4-0.5 7.9 1.9 10.1-2.4 0.5-4.7 2.5-4.3 5.3 0.7 5.4 10.2 8.6 15.8 8.5"/>
  <path class="cls-2" d="m111.2 110.9c2.7-7.9-0.8-16-4.2-22.5-2.4-4.9-5.1-9.8-6.5-15.9 3.6-1.9 7.8-6 8.6-12.3 0.2-3.4-0.5-6.5-1.8-9.4-0.2-6.1-1.9-12.5-7.3-18 1.7-3 4.2-8.3 4.5-14.5 0.5-6.9-3.1-11.7-7.5-12s-7.5 3.5-9.6 7.3c-1.5 3-3.4 8.3-3.6 12.8l-3-0.2c0.3-3.2 0.9-9.5-0.2-14.6-1.3-6.4-4.6-9.3-8.5-9.3-3.8 0-7.5 2.8-9.1 7.7-1.9 5.8-0.7 14.1 0.3 17.1-4.9 1.6-10.3 5.7-12.2 9.6l2.9 38.3 3 48.9h18.2c8.3 0 17.9-0.7 25.4-0.7 5.6 0 16.8 1.6 17.3-5.3 0.3-4.5-4.1-6.8-6.7-7z"/>
  <path class="cls-3" d="m100.2 72.5c2.8 10.1 10.2 18.4 11.9 28.9 0.3 3.1 0 6-0.8 8.5"/>
  <path class="cls-3" d="m83.5 26.2c0.1-4.3 1.6-9.6 3.9-13.7 2.1-3.6 5.2-7.6 9.5-6.5 3.4 0.3 7.6 3.5 7.6 10.1 0 5.2-1.9 11-4.9 16.5 4.7 4.1 7.3 9.3 7.5 17.1 1.3 2.3 2.5 5.9 2.1 9.8-0.9 7.7-6.7 12.4-13.5 14.6"/>
  <path class="cls-4" d="m75.7 26.1c4-0.3 8.7 0.2 13.5 2.1"/>
  <path class="cls-3" d="m80.6 25.5c0.2-3 0.7-5.7 0.5-9.6-0.4-8.6-3.9-13.6-8.7-13.6-4.2 0-10.3 3.3-10.2 15.1 0 3 0.6 6.3 1.3 9.6-4.9 1.7-10.5 5.6-12.4 9.7"/>
  <path class="cls-2" d="m28.1 90.9c-2.8 4.8-5.1 12.9-3.1 19.9-1.9 0.1-7 2-6.9 6.8 0.5 5.3 7.2 5.6 11.4 5.4 2.3 0 5.2-0.1 6.6-0.1 5.8 0 17.5 0.7 24.4 0.8l-2.9-33.8-29.5 1z"/>
  <path class="cls-3" d="m26.1 110.8"/>
  <path class="cls-3" d="m25 110.8c-1.6-4.5-1.3-12 2.6-19.4"/>
  <path class="cls-3" d="m25 110.8c-2.8 0.1-7.4 2.3-6.9 6.9 0.8 5.3 6.9 5.5 11.9 5.4 2.5 0 4.9-0.2 6.4-0.2 6 0 17.5 0.7 24.1 0.8"/>
  <path class="cls-3" d="m111.3 110.8c2.3 0.3 6.6 2.1 6.6 6.3-0.2 6.5-8.7 6.1-15.8 5.8-5.2-0.2-18.2 0.7-30.2 0.8"/>
  <path class="cls-6" d="m68.7 58.6c-4.7-12.7-9.8-20-16.6-21.9-7-2.2-13.2-0.7-18.7 1.6-5.8 2.6-11.3 6.9-13.2 12.5-2.3 6.8-0.8 15.1 3.2 23.8 3.5 7.6 15.3 30 28 42 4.8 4.5 10.2 9 15.5 9 6.5 0 9.3-7.9 9.5-19 0.3-12.6-2.7-35.5-7.7-48z"/>
  <path class="cls-7" d="m21.6 68.1c2.4-2.5 7-5.7 13.1-7.8"/>
  <path class="cls-7" d="m54.2 57.4c2.7-1.8 7.4-3.5 11.4-3.7"/>
  <path class="cls-10" d="m57 87.9c3.9-1.3 5.7-2.5 8.9-3.2"/>
  <path class="cls-7" d="m36.4 81.6c2.7-0.7 7.5-2.7 10.5-4.7"/>
  <path class="cls-10" d="m43.9 108.7c2.8 0 7.5-1 10.7-3"/>
  <path class="cls-8" d="m27.4 71.6c-4.8 0-8.7 3.5-8.7 9 0.2 5 3 9.3 8.2 9.3 4.7 0.2 8.7-3.2 8.7-8.3 0-4.9-3.4-9.9-8.2-10z"/>
  <path class="cls-4" d="m86.1 77.5c-6 0.4-10.5-1.1-14.5-1.3-4-0.1-8.5 0.8-9.5 5.2-1.7 7.2 6.9 11.7 19.5 13 2.1 0.2 4.1 0.2 6.4 0"/>
  <path class="cls-5" d="m70.4 42.9c-2.5 0.1-4.4 2.1-4.3 4.8 0.3 2.7 2.5 5 5.8 4.7 2.1-0.4 3.8-2.3 3.2-5.5-0.5-2.5-2.5-4-4.7-4z"/>
  <path class="cls-5" d="m94.6 47.1c-2.5 0.6-4.6 3-3.9 5.9 0.7 2.7 3.4 4.1 5.9 3.2 2.4-0.6 3.6-3.5 2.6-6.2-0.8-2.1-2.8-3.1-4.6-2.9z"/>
  <path class="cls-9" d="m77.1 56.7c1.5 1.9 5.4 1.7 5.3-2.1"/>
  <path class="cls-9" d="m87 58.2c-1.9 1.2-5.1 0.2-4.6-3.3"/>
  <path class="cls-5" d="m81.9 55.2c-0.8-0.3-2.5-2.3-1.5-2.8 0.7-0.7 4.2-0.3 4.7 0.7 0.6 1.3-2 2.3-3.2 2.5"/>
  <path class="cls-5" d="m81.9 53.4"/>
</svg>
